<?xml version="1.0" encoding="utf-8"?>
<!-- Generator: Adobe Illustrator 18.1.0, SVG Export Plug-In . SVG Version: 6.00 Build 0)  -->
<!DOCTYPE svg PUBLIC "-//W3C//DTD SVG 1.1//EN" "http://www.w3.org/Graphics/SVG/1.1/DTD/svg11.dtd">
<svg version="1.1" id="Layer_1" xmlns="http://www.w3.org/2000/svg" xmlns:xlink="http://www.w3.org/1999/xlink" x="0px" y="0px"
	 viewBox="0 0 30 30" enable-background="new 0 0 30 30" xml:space="preserve">
<g>
	<defs>
		<rect id="SVGID_1_" x="-502" y="-725" width="1147" height="1594"/>
	</defs>
	<clipPath id="SVGID_2_">
		<use xlink:href="#SVGID_1_"  overflow="visible"/>
	</clipPath>
	<path clip-path="url(#SVGID_2_)" fill="none" stroke="#54AB24" stroke-miterlimit="10" d="M-200.3,249l-8.3,8.7
		c-0.2,0.2-0.4,0.3-0.7,0.3c-0.2,0-0.5-0.1-0.7-0.3l-4.8-5c-0.2-0.2-0.3-0.4-0.3-0.7c0-0.3,0.1-0.5,0.3-0.7l1.3-1.4
		c0.2-0.2,0.4-0.3,0.7-0.3c0.2,0,0.5,0.1,0.7,0.3l2.8,3l6.3-6.6c0.2-0.2,0.4-0.3,0.7-0.3c0.2,0,0.5,0.1,0.7,0.3l1.3,1.4
		c0.2,0.2,0.3,0.4,0.3,0.7C-200,248.6-200.1,248.8-200.3,249z"/>
	
		<circle clip-path="url(#SVGID_2_)" fill="none" stroke="#54AB24" stroke-width="2" stroke-miterlimit="10" cx="-208" cy="251" r="15"/>
</g>
<circle fill="none" stroke="#90CC83" stroke-width="2" stroke-miterlimit="10" cx="15" cy="15" r="14"/>
<g>
	<path fill="none" stroke="#90CC83" d="M23.2,12.3l-7.9,7.9l-1.5,1.5c-0.2,0.2-0.5,0.3-0.7,0.3c-0.3,0-0.5-0.1-0.7-0.3l-1.5-1.5
		l-4-4c-0.2-0.2-0.3-0.5-0.3-0.7s0.1-0.5,0.3-0.7l1.5-1.5C8.6,13.1,8.9,13,9.1,13s0.5,0.1,0.7,0.3l3.2,3.2l7.2-7.2
		C20.5,9.1,20.7,9,21,9s0.5,0.1,0.7,0.3l1.5,1.5c0.2,0.2,0.3,0.5,0.3,0.7C23.5,11.8,23.4,12.1,23.2,12.3z"/>
</g>
</svg>
