<?xml version="1.0" encoding="UTF-8" standalone="no"?>
<svg width="18px" height="18px" viewBox="0 0 18 18" version="1.1" xmlns="http://www.w3.org/2000/svg" xmlns:xlink="http://www.w3.org/1999/xlink">
    <!-- Generator: Sketch 3.6.1 (26313) - http://www.bohemiancoding.com/sketch -->
    <title>icon-facebook</title>
    <desc>Created with Sketch.</desc>
    <defs></defs>
    <g id="Mar-15" stroke="none" stroke-width="1" fill="none" fill-rule="evenodd">
        <g id="Interactions" transform="translate(-1567.000000, -1188.000000)" fill="#02B3E4">
            <g id="icon-facebook" transform="translate(1562.000000, 1183.000000)">
                <path d="M22.0066193,22.9984632 L17.4197107,22.9984632 L17.4197107,16.0284221 L19.7594999,16.0284221 L20.110076,13.3123759 L17.4197107,13.3123759 L17.4197107,11.5778323 C17.4197107,10.7914536 17.6383918,10.2555983 18.7661191,10.2555983 L20.204707,10.2551081 L20.204707,7.82537436 C19.9556264,7.79252687 19.1019858,7.71849746 18.1086051,7.71849746 C16.0345673,7.71849746 14.6146114,8.98435146 14.6146114,11.3091693 L14.6146114,13.3123759 L12.2689385,13.3123759 L12.2689385,16.0284221 L14.6146114,16.0284221 L14.6146114,22.9984632 L5.99338073,22.9984632 C5.44471684,22.9984632 5,22.5533062 5,22.0047041 L5,5.99375912 C5,5.44466676 5.44471684,5 5.99338073,5 L22.0066193,5 C22.5552832,5 23,5.44466676 23,5.99375912 L23,22.0047041 C23,22.5533062 22.5552832,22.9984632 22.0066193,22.9984632 Z" id="Facebook"></path>
            </g>
        </g>
    </g>
</svg>