<?xml version="1.0" encoding="UTF-8" standalone="no"?>
<svg width="19px" height="15px" viewBox="0 0 19 15" version="1.1" xmlns="http://www.w3.org/2000/svg" xmlns:xlink="http://www.w3.org/1999/xlink">
    <!-- Generator: Sketch 3.6.1 (26313) - http://www.bohemiancoding.com/sketch -->
    <title>icon-twitter</title>
    <desc>Created with Sketch.</desc>
    <defs></defs>
    <g id="Mar-15" stroke="none" stroke-width="1" fill="none" fill-rule="evenodd">
        <g id="Interactions" transform="translate(-1517.000000, -1190.000000)" fill="#02B3E4">
            <g id="icon-twitter" transform="translate(1512.000000, 1183.000000)">
                <path d="M23.4759565,7.27019567 C22.722105,7.69258126 21.8891144,7.99977079 20.9987985,8.16413592 C20.2895896,7.44767254 19.2759993,7 18.1538462,7 C16.0028836,7 14.2572558,8.65208026 14.2572558,10.6895523 C14.2572558,10.9789473 14.2907377,11.259445 14.3577017,11.5296407 C11.118068,11.3755776 8.24622861,9.90846669 6.32253758,7.67338192 C5.98670333,8.22032912 5.794943,8.85484408 5.794943,9.53056738 C5.794943,10.8098994 6.48284517,11.9393828 7.52941019,12.6010578 C6.89122367,12.5832633 6.28905562,12.4156202 5.76247564,12.1412101 L5.76247564,12.1861646 C5.76247564,13.9745134 7.10631992,15.466443 8.89101007,15.8040706 C8.56430727,15.8907017 8.21934157,15.9342515 7.86372253,15.9342515 C7.6126078,15.9342515 7.3675807,15.9117742 7.13016314,15.8686927 C7.62630497,17.3339306 9.06501482,18.4011332 10.7710731,18.4296981 C9.43737484,19.4196351 7.7556671,20.0096638 5.92988546,20.0096638 C5.61535792,20.0096638 5.30438149,19.9928058 5,19.9590899 C6.72482845,21.0042835 8.7748378,21.6153846 10.975516,21.6153846 C18.1462366,21.6153846 22.0661629,15.9941909 22.0661629,11.1180254 C22.0661629,10.9574065 22.0631191,10.7972559 22.0565242,10.6399149 C22.8179852,10.1196595 23.4795076,9.47015968 24,8.73028247 C23.3019518,9.02342369 22.5501295,9.22197302 21.7617814,9.3109456 C22.5668705,8.85484408 23.1847649,8.13182483 23.4759565,7.27019567" id="Twitter"></path>
            </g>
        </g>
    </g>
</svg>